<?xml version="1.0" encoding="UTF-8" standalone="no"?>
<svg
   xmlns:dc="http://purl.org/dc/elements/1.1/"
   xmlns:cc="http://creativecommons.org/ns#"
   xmlns:rdf="http://www.w3.org/1999/02/22-rdf-syntax-ns#"
   xmlns:svg="http://www.w3.org/2000/svg"
   xmlns="http://www.w3.org/2000/svg"
   xmlns:sodipodi="http://sodipodi.sourceforge.net/DTD/sodipodi-0.dtd"
   xmlns:inkscape="http://www.inkscape.org/namespaces/inkscape"
   id="svg3695"
   version="1.1"
   width="1024"
   height="1024"
   viewBox="0 0 1024 1024"
   sodipodi:docname="Brainf_ck_sharp.svg"
   inkscape:version="0.92.1 r15371">
  <sodipodi:namedview
     pagecolor="#383838"
     bordercolor="#666666"
     borderopacity="1"
     objecttolerance="10"
     gridtolerance="10"
     guidetolerance="10"
     inkscape:pageopacity="0"
     inkscape:pageshadow="2"
     inkscape:window-width="1920"
     inkscape:window-height="1017"
     id="namedview7"
     showgrid="false"
     inkscape:zoom="0.65186406"
     inkscape:cx="785.82162"
     inkscape:cy="504.4071"
     inkscape:window-x="1912"
     inkscape:window-y="-8"
     inkscape:window-maximized="1"
     inkscape:current-layer="svg3695" />
  <defs
     id="defs3689" />
  <metadata
     id="metadata3692">
    <rdf:RDF>
      <cc:Work
         rdf:about="">
        <dc:format>image/svg+xml</dc:format>
        <dc:type
           rdf:resource="http://purl.org/dc/dcmitype/StillImage" />
        <dc:title />
      </cc:Work>
    </rdf:RDF>
  </metadata>
  <g
     id="layer1"
     transform="matrix(4.8604974,0,0,4.8604974,-0.58366354,-131.29956)">
    <path
       id="path3719"
       style="fill:#ffffff"
       d="M 0.15118869,126.51146 V 82.191368 l 13.69218731,0.0685 13.692188,0.0685 0.07084,6.41042 0.07084,6.41041 -5.097921,0.0719 -5.09792,0.0719 -0.06723,31.286982 -0.06723,31.28698 h 5.16046 5.160459 v 6.48229 6.48229 H 13.909522 0.15118869 Z M 183.50745,164.34926 v -6.48229 h 5.02708 5.02709 V 126.51384 95.160718 h -5.02709 -5.02708 v -6.4823 -6.48229 h 13.62604 13.62604 v 44.317712 44.31771 h -13.62604 -13.62604 z m -139.637994,-19.48655 0.07028,-7.45855 17.528646,-5.84054 c 9.640755,-3.2123 17.528646,-5.90143 17.528646,-5.97584 0,-0.0744 -7.828359,-2.73889 -17.396354,-5.92106 -9.567996,-3.18216 -17.487573,-5.86826 -17.599063,-5.96911 -0.11149,-0.10084 -0.171021,-3.46565 -0.132292,-7.47735 l 0.07042,-7.294002 24.870834,10.241812 24.870833,10.24181 v 6.01977 6.01977 l -3.042708,1.26634 c -2.908877,1.21065 -44.181653,18.48325 -45.975485,19.24068 l -0.864024,0.36483 z m 92.277574,-3.92569 v -9.25703 l -9.32656,-0.0695 -9.32657,-0.0695 -0.071,-6.14818 -0.071,-6.14817 9.33143,-0.0695 9.33143,-0.0695 0.0695,-9.32656 0.0695,-9.32657 h 6.21432 6.21433 v 9.39271 9.39271 h 9.39271 9.3927 v 6.21771 6.21771 h -9.3927 -9.39271 v 9.26041 9.26042 h -6.21771 -6.21771 z"
       inkscape:connector-curvature="0" />
  </g>
</svg>
